<?xml version="1.0" standalone="no"?>
<!DOCTYPE svg PUBLIC "-//W3C//DTD SVG 20010904//EN"
 "http://www.w3.org/TR/2001/REC-SVG-20010904/DTD/svg10.dtd">
<svg version="1.0" xmlns="http://www.w3.org/2000/svg"
 width="4096.000000pt" height="4096.000000pt" viewBox="0 0 4096.000000 4096.000000"
 preserveAspectRatio="xMidYMid meet">

<g transform="translate(0.000000,4096.000000) scale(0.100000,-0.100000)"
fill="#000000" stroke="none">
<path d="M20235 38389 c-800 -83 -1501 -518 -1927 -1196 -210 -333 -340 -721
-377 -1123 -8 -80 -11 -2297 -11 -7320 l0 -7205 -1682 1681 c-926 924 -1714
1707 -1753 1741 -407 350 -884 556 -1425 614 -139 15 -514 6 -640 -15 -458
-78 -819 -233 -1183 -508 -108 -82 -331 -300 -421 -413 -295 -370 -463 -750
-543 -1230 -26 -158 -26 -602 0 -760 74 -445 217 -786 480 -1150 71 -97 550
-581 4051 -4083 2442 -2444 4009 -4005 4071 -4055 622 -504 1451 -684 2235
-487 362 91 686 253 977 489 139 113 8012 7991 8090 8096 280 373 434 733 510
1190 28 169 26 613 -4 785 -98 560 -329 1008 -722 1401 -209 209 -378 335
-625 465 -224 117 -479 203 -746 251 -133 24 -168 27 -425 27 -298 1 -377 -7
-600 -59 -397 -93 -761 -279 -1085 -554 -36 -30 -824 -813 -1752 -1740 l-1688
-1685 -3 7279 c-3 6766 -4 7287 -20 7375 -48 273 -104 465 -192 665 -133 301
-296 539 -528 774 -399 404 -893 653 -1462 737 -123 18 -478 26 -600 13z" fill="white"/>
<path d="M2315 17909 c-800 -83 -1501 -518 -1927 -1196 -210 -333 -340 -721
-377 -1123 -15 -158 -15 -10538 -1 -10695 20 -212 66 -424 135 -625 48 -140
187 -420 272 -550 437 -664 1141 -1083 1932 -1150 89 -8 5425 -10 18216 -8
17380 3 18094 4 18195 21 304 52 529 123 771 244 264 131 473 279 674 479 425
423 688 984 745 1589 14 153 14 10537 0 10690 -48 513 -237 980 -559 1384
-335 420 -833 738 -1361 871 -560 141 -1143 92 -1665 -140 -590 -261 -1047
-720 -1310 -1315 -89 -201 -147 -404 -192 -665 -17 -100 -18 -311 -20 -4072
l-3 -3968 -15360 0 -15360 0 -3 3973 c-3 4344 1 3982 -57 4260 -146 689 -606
1310 -1240 1675 -266 153 -568 256 -900 307 -126 19 -477 28 -605 14z" fill="white"/>
</g>
</svg>
