<?xml version="1.0" standalone="no"?>
<!DOCTYPE svg PUBLIC "-//W3C//DTD SVG 20010904//EN"
 "http://www.w3.org/TR/2001/REC-SVG-20010904/DTD/svg10.dtd">
<svg version="1.0" xmlns="http://www.w3.org/2000/svg"
 width="4096.000000pt" height="4096.000000pt" viewBox="0 0 4096.000000 4096.000000"
 preserveAspectRatio="xMidYMid meet">

<g transform="translate(0.000000,4096.000000) scale(0.100000,-0.100000)"
fill="#000000" stroke="none">
<path d="M20340 33264 c-234 -50 -436 -254 -485 -489 -13 -61 -15 -1111 -15
-8290 l0 -8220 -2697 2696 c-2666 2664 -2699 2696 -2774 2733 -184 88 -396 88
-578 -1 -106 -52 -232 -178 -284 -284 -89 -182 -89 -394 -1 -578 37 -75 70
-109 3318 -3357 l3281 -3282 85 -41 c112 -54 209 -74 325 -68 114 6 224 42
314 101 48 32 929 907 3327 3307 3226 3230 3261 3265 3298 3340 88 184 88 396
-1 578 -52 106 -178 232 -284 284 -182 89 -394 89 -578 1 -75 -37 -108 -69
-2773 -2733 l-2698 -2696 0 8220 c0 7159 -2 8229 -15 8290 -8 39 -34 108 -57
155 -129 257 -422 396 -708 334z" fill="white"/>
<path d="M4980 15344 c-177 -38 -348 -171 -429 -334 -76 -156 -72 -55 -68
-1714 3 -1441 4 -1485 25 -1646 118 -917 443 -1671 1021 -2370 121 -146 402
-427 551 -551 706 -585 1477 -913 2415 -1026 144 -17 623 -18 11975 -18 9667
0 11847 2 11945 13 515 56 941 166 1375 354 1375 598 2379 1879 2624 3348 62
369 59 283 63 1896 4 1661 8 1559 -69 1714 -106 211 -331 350 -568 350 -279 0
-525 -184 -616 -460 -18 -52 -19 -137 -24 -1540 -7 -1619 -4 -1538 -66 -1840
-169 -829 -660 -1558 -1364 -2024 -417 -276 -833 -432 -1370 -513 -108 -17
-779 -18 -11825 -21 -8549 -2 -11749 0 -11855 8 -502 39 -977 190 -1407 448
-774 464 -1322 1244 -1492 2122 -57 291 -54 216 -60 1820 -6 1479 -6 1485 -27
1547 -111 323 -428 507 -754 437z" fill="white" />
</g>
</svg>
